<?xml version="1.0" standalone="no"?>
<!DOCTYPE svg PUBLIC "-//W3C//DTD SVG 20010904//EN"
 "http://www.w3.org/TR/2001/REC-SVG-20010904/DTD/svg10.dtd">
<svg version="1.0" xmlns="http://www.w3.org/2000/svg"
 width="700.000000pt" height="700.000000pt" viewBox="0 0 700.000000 700.000000"
 preserveAspectRatio="xMidYMid meet">
<metadata>
Created by potrace 1.11, written by Peter Selinger 2001-2013
</metadata>
<g transform="translate(0.000000,700.000000) scale(0.100000,-0.100000)"
fill="#000000" stroke="none">
<path d="M6675 6980 c-77 -24 -313 -97 -485 -150 -506 -155 -1359 -437 -1892
-625 l-147 -52 -20 61 c-11 34 -32 101 -47 150 -22 74 -34 97 -70 132 -44 44
-97 66 -163 66 -47 0 -169 -62 -686 -347 -38 -21 -135 -77 -215 -123 -80 -47
-167 -98 -195 -114 -27 -16 -117 -70 -200 -121 -824 -508 -1367 -911 -1785
-1327 -127 -126 -147 -149 -243 -278 -160 -215 -280 -438 -369 -686 -40 -113
-101 -336 -113 -416 -4 -25 -9 -52 -10 -60 -2 -9 -6 -43 -10 -75 -4 -33 -10
-69 -12 -80 -9 -36 -10 -451 -2 -511 4 -32 11 -86 15 -119 7 -65 6 -63 30
-180 32 -162 85 -332 149 -485 28 -69 120 -253 151 -307 41 -69 105 -170 127
-198 12 -16 42 -57 67 -90 24 -33 47 -62 50 -65 3 -3 18 -21 34 -40 80 -100
295 -305 401 -382 6 -4 24 -18 40 -31 241 -190 665 -389 965 -452 8 -2 35 -8
60 -14 53 -12 92 -19 140 -27 19 -3 46 -7 60 -10 71 -12 203 -19 360 -19 213
0 282 6 495 41 256 42 579 162 840 312 103 59 285 183 330 225 11 10 39 33 63
50 95 72 389 392 584 637 55 69 106 133 114 143 8 10 32 42 52 70 20 29 39 54
42 57 24 22 337 479 475 695 197 307 424 688 623 1045 38 69 78 141 89 160 62
111 185 352 189 372 17 83 -8 161 -68 213 -39 32 -64 42 -305 116 l-32 10 16
42 c32 87 136 385 158 452 13 39 61 183 108 320 119 351 409 1250 423 1310 1
6 23 78 49 160 26 83 51 166 57 185 5 19 16 54 23 76 17 52 13 139 -8 179 -21
41 -61 82 -98 100 -46 24 -135 26 -204 5z m-3882 -2615 c63 -5 186 -25 242
-39 176 -45 338 -111 483 -198 134 -80 240 -164 352 -278 226 -230 375 -497
454 -815 114 -458 24 -979 -237 -1370 -107 -159 -262 -327 -392 -423 -38 -28
-74 -55 -80 -60 -28 -23 -169 -103 -240 -136 -145 -68 -316 -124 -435 -141
-24 -4 -47 -8 -50 -10 -10 -6 -173 -18 -260 -18 -399 -2 -789 135 -1105 387
-129 103 -295 291 -390 441 -44 69 -110 206 -145 300 -121 321 -145 637 -76
991 2 11 18 68 35 127 144 500 525 921 1011 1119 108 44 210 76 290 92 14 3
50 10 80 16 30 6 98 14 150 17 52 3 96 6 97 7 4 4 130 -2 216 -9z"/>
<path d="M2092 3489 c-100 -19 -218 -103 -275 -196 -102 -164 -83 -381 46
-520 190 -207 511 -192 674 30 133 181 108 430 -59 584 -102 93 -243 131 -386
102z"/>
<path d="M2795 2181 c-77 -19 -132 -70 -158 -147 -39 -113 31 -241 149 -274
58 -16 113 -8 169 25 159 93 128 338 -48 390 -55 16 -66 17 -112 6z"/>
</g>
</svg>
